<svg width="24" height="24" viewBox="0 0 24 24" fill="none" xmlns="http://www.w3.org/2000/svg">
<path d="M2 14L14 2L22 10L10 22H2V14Z" fill="white"/>
<path fill-rule="evenodd" clip-rule="evenodd" d="M12.5858 0.585786C13.3668 -0.195262 14.6332 -0.195262 15.4142 0.585786L23.4142 8.58579C24.1953 9.36684 24.1953 10.6332 23.4142 11.4142L10.8284 24H0V13.1716L12.5858 0.585786ZM10 22H2V14L14 2L22 10L10 22Z" fill="black"/>
<path d="M14 2L10 6L18 14L22 10L14 2Z" fill="#ED8AF5"/>
<path d="M2 22H6C5.37049 20.1115 3.88854 18.6295 2 18V22Z" fill="#00D1FF"/>
<path d="M18 14L10 22C10 19.7909 8.20914 18 6 18C6 15.7909 4.20914 14 2 14L10 6L18 14Z" fill="#FFDA18"/>
<g style="mix-blend-mode:multiply">
<path d="M18 6L6 18C8.20914 18 10 19.7909 10 22L22 10L18 6Z" fill="#D9D9D9"/>
</g>
<path fill-rule="evenodd" clip-rule="evenodd" d="M18 14L10 6L10.7072 5.29289L18.7072 13.2929L18 14Z" fill="black"/>
</svg>
