<svg width="64" height="18" viewBox="0 0 64 18" fill="none" xmlns="http://www.w3.org/2000/svg">
<path d="M64 4.4322C62.6051 4.56546 61.2953 5.53824 61.1443 7.35062L60.8417 10.9817C60.1081 19.7846 47.225 19.7842 46.4915 10.9816L46.1889 7.35056C45.8629 3.43838 40.137 3.43811 39.811 7.35061L39.5084 10.9817C38.7748 19.7846 25.8917 19.7842 25.1581 10.9816L24.8555 7.35055C24.5295 3.43837 18.8037 3.4381 18.4776 7.3506L18.1751 10.9817C17.4415 19.7846 4.55835 19.7842 3.8248 10.9816L3.52221 7.35055C3.34721 5.2506 1.6164 4.27777 0 4.43219V0.42336C3.51195 0.274947 7.12963 2.47323 7.50839 7.01837L7.81098 10.6494C8.13702 14.5619 13.8629 14.5617 14.1889 10.6495L14.4915 7.01842C15.225 -1.78418 28.1082 -1.78456 28.8417 7.01837L29.1443 10.6494C29.4704 14.5619 35.1962 14.5617 35.5222 10.6495L35.8248 7.01843C36.5584 -1.78418 49.4415 -1.78455 50.1751 7.01838L50.4776 10.6494C50.8037 14.5619 56.5295 14.5617 56.8555 10.6495L57.1581 7.01843C57.5129 2.7608 60.7101 0.562406 64 0.423377V4.4322Z" fill="#00D1FF"/>
</svg>
